<svg width="2686" height="1996" viewBox="0 0 2686 1996" fill="none" xmlns="http://www.w3.org/2000/svg">
<path d="M40 42.0001C40 40.8955 40.8954 40 42 40H2643.15C2644.26 40 2645.15 40.8954 2645.15 42V1953.48C2645.15 1954.58 2644.26 1955.48 2643.15 1955.48H42C40.8954 1955.48 40 1954.58 40 1953.48V42.0001Z" fill="black"/>
<path fill-rule="evenodd" clip-rule="evenodd" d="M512.476 1459.11C465.679 1429.78 403.966 1443.94 374.637 1490.74L326.311 1567.84C326.021 1568.31 325.774 1568.78 325.568 1569.27C322.032 1575.19 320 1582.11 320 1589.5V1598.5C320 1620.32 337.685 1638 359.5 1638C366.184 1638 372.481 1636.34 378 1633.41V1636.5C378 1658.32 395.685 1676 417.5 1676C426.303 1676 434.433 1673.12 441 1668.25V1673C441 1695.09 458.909 1713 481 1713C497.658 1713 511.938 1702.82 517.954 1688.34C518.015 1688.25 518.074 1688.16 518.133 1688.06L566.458 1610.96C595.788 1564.16 581.627 1502.45 534.83 1473.12L512.476 1459.11Z" fill="#FF7A00"/>
<path fill-rule="evenodd" clip-rule="evenodd" d="M989.829 1473.17C943.357 1503.02 929.874 1564.88 959.716 1611.35L1008.89 1687.93C1009.18 1688.38 1009.51 1688.81 1009.86 1689.21C1013.71 1694.93 1019.1 1699.71 1025.79 1702.86L1033.93 1706.7C1053.67 1715.99 1077.2 1707.53 1086.5 1687.79C1089.35 1681.74 1090.53 1675.34 1090.23 1669.1L1093.02 1670.41C1112.76 1679.71 1136.29 1671.24 1145.59 1651.51C1149.34 1643.54 1150.2 1634.96 1148.59 1626.95L1152.89 1628.97C1172.87 1638.38 1196.7 1629.81 1206.12 1609.82C1213.21 1594.75 1210.08 1577.5 1199.55 1565.88C1199.49 1565.79 1199.43 1565.7 1199.38 1565.61L1150.21 1489.03C1120.36 1442.56 1058.5 1429.08 1012.03 1458.92L989.829 1473.17Z" fill="#FF7A00"/>
<path fill-rule="evenodd" clip-rule="evenodd" d="M1468.65 1031.63C1469.39 1031.18 1470.17 1030.78 1470.99 1030.43L1480.2 1026.61C1503.38 1016.96 1530.43 1027.75 1540.61 1050.7C1548.1 1067.58 1544.38 1086.34 1532.66 1098.92L1534.19 1102.04C1547.07 1103.32 1559.06 1110.83 1565.78 1123.37C1576.83 1143.98 1569.48 1170.36 1549.37 1182.29L1549.21 1182.38C1547.23 1184.15 1544.97 1185.68 1542.47 1186.91L1468.88 1223.08C1466.92 1224.04 1464.91 1224.77 1462.87 1225.27L1463.09 1225.72C1376.59 1268.23 1272 1232.56 1229.49 1146.06L1112.52 908.032C1091.26 864.779 1109.1 812.485 1152.35 791.23C1195.6 769.974 1247.9 787.807 1269.15 831.06L1387.61 1072.12C1389.26 1070.82 1391.06 1069.67 1393.02 1068.71L1466.61 1032.54C1467.29 1032.21 1467.97 1031.91 1468.65 1031.63Z" fill="#252840"/>
<path fill-rule="evenodd" clip-rule="evenodd" d="M396.449 711.765C344.231 695.556 288.76 724.748 272.551 776.967L154.934 1155.89C154.436 1156.94 154.006 1158.04 153.65 1159.19L145.057 1186.87C136.124 1215.65 152.212 1246.22 180.991 1255.15C202.813 1261.93 225.666 1254.31 239.334 1237.69C244.117 1253.28 256.269 1266.31 273.016 1271.51C297.713 1279.17 323.822 1267.14 334.419 1244.32L334.77 1244.42L335.9 1240.78C336.257 1239.84 336.588 1238.87 336.892 1237.89L343.613 1216.24C343.814 1215.59 343.983 1214.94 344.122 1214.3L461.651 835.663C477.859 783.445 448.668 727.974 396.449 711.765Z" fill="#252840"/>
<rect x="319.031" y="128" width="915" height="1462" rx="457.5" fill="#252840"/>
<path d="M395.031 559.529C395.031 448.227 480.609 358 586.175 358C691.742 358 777.319 448.227 777.319 559.529V558.698C777.319 447.857 862.546 358 967.675 358C1072.8 358 1158.03 447.857 1158.03 558.698V1048.6C1158.03 1049.23 1158.03 1049.87 1158.01 1050.5C1157.46 1109.62 1147.62 1168.08 1128.99 1222.74C1109.82 1278.99 1081.72 1330.12 1046.29 1373.18C1010.87 1416.24 968.808 1450.4 922.525 1473.7C876.241 1497.01 826.633 1509 776.531 1509C726.43 1509 676.821 1497.01 630.538 1473.7C584.254 1450.4 542.195 1416.24 506.768 1373.18C471.347 1330.12 443.242 1278.99 424.072 1222.74C405.444 1168.08 395.604 1109.61 395.056 1050.49L395.031 1048.6V559.529Z" fill="white"/>
<ellipse cx="579.531" cy="598.5" rx="32.5" ry="39.5" fill="black"/>
<ellipse cx="966.031" cy="598.5" rx="33" ry="39.5" fill="black"/>
<path d="M714.663 688H856.768L882.031 788.101L775.452 933L672.031 788.101L714.663 688Z" fill="url(#paint0_diamond_0_1)"/>
<line x1="1985.47" y1="356.012" x2="2063.43" y2="943.013" stroke="white" stroke-width="15"/>
<rect x="1981.25" y="269" width="57" height="1370" rx="28.5" transform="rotate(33.0531 1981.25 269)" fill="#FF7A00"/>
<rect x="1722.85" y="981.469" width="770" height="456" rx="50" transform="rotate(-7.39776 1722.85 981.469)" fill="#33DECA" fill-opacity="0.6"/>
<path d="M1966.93 1120.53C1968.81 1120.3 1970.3 1120.87 1971.38 1122.24C1972.54 1123.51 1973.23 1124.99 1973.44 1126.67C1973.7 1128.76 1973.54 1130.29 1972.95 1131.27C1972.46 1132.14 1971.37 1133.13 1969.7 1134.24C1965.78 1136.75 1960.82 1138.98 1954.81 1140.94C1948.81 1142.9 1942.28 1144.32 1935.24 1145.2C1926.41 1146.3 1919.72 1145.62 1915.18 1143.16C1910.74 1140.69 1907.77 1137.44 1906.25 1133.39C1904.83 1129.24 1903.69 1123.74 1902.83 1116.89C1901.92 1109.55 1901.32 1102.32 1901.03 1095.2C1900.74 1087.98 1900.65 1078.77 1900.76 1067.57C1900.86 1062.72 1902.32 1059.06 1905.14 1056.59C1907.94 1054.02 1911.18 1052.51 1914.85 1052.05C1917.92 1051.67 1922.92 1050.94 1929.84 1049.88L1942.78 1048.11C1948.13 1047.45 1952.02 1047.11 1954.44 1047.11C1957.49 1047.34 1959.76 1047.76 1961.25 1048.38C1962.83 1048.89 1963.72 1050.04 1963.95 1051.82C1964.2 1053.81 1963.74 1055.83 1962.59 1057.89C1961.53 1059.93 1959.67 1061.12 1956.99 1061.46C1953.91 1061.84 1949.47 1062.19 1943.67 1062.52C1937.86 1062.84 1933.52 1063.18 1930.64 1063.54C1928.16 1063.85 1925.75 1064.3 1923.4 1064.89C1920.65 1065.44 1918.71 1066.03 1917.58 1066.68C1916.45 1067.32 1915.86 1068.25 1915.81 1069.47C1915.7 1079.86 1915.95 1087.49 1916.55 1092.35C1918.87 1092.37 1921.12 1092.24 1923.31 1091.96C1926.08 1091.62 1929.04 1091.1 1932.18 1090.4C1935.32 1089.71 1937.33 1089.26 1938.21 1089.05C1943.41 1087.89 1947.89 1087.08 1951.66 1086.61C1953.84 1086.34 1955.53 1086.53 1956.72 1087.19C1958.01 1087.83 1958.74 1088.85 1958.92 1090.24C1959.19 1092.42 1958.8 1094.18 1957.76 1095.52C1956.82 1096.85 1954.95 1097.99 1952.14 1098.95C1948.76 1100.07 1944.51 1101.16 1939.4 1102.2C1934.39 1103.23 1929.45 1104.05 1924.59 1104.65C1922.9 1104.86 1920.56 1105.05 1917.55 1105.23C1918.01 1111.32 1918.56 1116.94 1919.21 1122.1C1920.09 1129.15 1925.19 1132.09 1934.52 1130.92C1939.48 1130.31 1943.55 1129.44 1946.74 1128.34C1949.93 1127.24 1953.58 1125.78 1957.68 1123.95C1961.46 1121.97 1964.55 1120.83 1966.93 1120.53ZM2033.86 1092.68C2038.06 1098.1 2042.19 1102.88 2046.23 1107.01C2050.36 1111.03 2055.71 1115.95 2062.28 1121.78C2063.06 1122.39 2063.51 1123.14 2063.62 1124.03C2063.79 1125.42 2063.15 1126.71 2061.68 1127.9C2060.32 1129.08 2058.55 1129.81 2056.36 1130.08C2053.29 1130.46 2049.8 1129.59 2045.91 1127.45C2042.45 1125.57 2039.24 1122.89 2036.29 1119.43C2033.34 1115.97 2029.85 1111.42 2025.82 1105.78C2022.66 1101.43 2020.78 1098.9 2020.18 1098.16C2016.51 1100.24 2010.58 1101.98 2002.4 1103.41C2002.82 1106.78 2003.68 1111.31 2005 1116.99C2006.34 1122.87 2007.17 1127.15 2007.51 1129.83C2007.73 1131.61 2007.02 1133.21 2005.38 1134.63C2003.85 1136.03 2001.99 1136.87 1999.8 1137.14C1997.22 1137.46 1995.11 1136.67 1993.46 1134.76C1991.72 1132.15 1990.41 1128.94 1989.53 1125.12C1988.65 1121.3 1987.88 1116.71 1987.21 1111.35C1986.51 1105.69 1986.05 1099.25 1985.86 1092.02C1985.46 1084.01 1985.03 1078.11 1984.56 1074.34C1984.17 1071.27 1983.36 1067.19 1982.12 1062.1C1981.91 1061.22 1981.57 1059.7 1981.1 1057.54C1980.63 1055.38 1980.28 1053.41 1980.06 1051.62C1979.89 1050.24 1980.24 1048.98 1981.1 1047.87C1982.06 1046.64 1983.11 1045.75 1984.25 1045.21C1992.13 1042.91 1999.88 1041.29 2007.52 1040.34C2020.52 1038.71 2031.59 1039.8 2040.73 1043.6C2049.87 1047.4 2055.06 1054.26 2056.3 1064.18C2056.69 1067.26 2056.36 1070.32 2055.33 1073.37C2054.39 1076.31 2052.89 1078.87 2050.85 1081.04C2045.38 1086.45 2039.71 1090.34 2033.86 1092.68ZM2040.62 1065.68C2040.02 1060.92 2037.01 1057.37 2031.58 1055.02C2026.13 1052.58 2018.75 1051.94 2009.42 1053.1C2005.25 1053.62 2001.2 1054.63 1997.25 1056.13L1998.35 1063.7C1998.89 1068.07 1999.28 1072.35 1999.5 1076.56C1999.72 1080.76 2000.13 1085.25 2000.72 1090.01C2002.36 1089.4 2004.12 1088.93 2005.99 1088.6C2007.85 1088.16 2009.07 1087.86 2009.65 1087.69C2013.97 1086.75 2017.28 1085.83 2019.59 1084.94C2023.88 1082.99 2027.4 1081.29 2030.14 1079.84C2032.97 1078.28 2035.49 1076.3 2037.71 1073.91C2040.02 1071.4 2040.99 1068.66 2040.62 1065.68ZM2153.81 1103.56C2155.3 1103.37 2156.57 1103.87 2157.62 1105.05C2158.77 1106.21 2159.44 1107.54 2159.63 1109.03C2159.95 1111.61 2159.21 1113.72 2157.4 1115.36C2155.67 1116.88 2153.27 1117.84 2150.19 1118.22C2145.63 1118.79 2141.86 1118.45 2138.88 1117.21C2135.91 1115.97 2133.05 1113.3 2130.33 1109.21C2129.43 1107.71 2128.27 1105.24 2126.83 1101.79C2125.49 1098.33 2124.19 1095.62 2122.94 1093.66C2121.78 1091.58 2120.01 1089.94 2117.64 1088.72C2115.37 1087.5 2112.39 1087.06 2108.71 1087.42L2105.45 1087.98C2102.11 1088.6 2099.59 1089.01 2097.9 1089.22C2095.92 1089.47 2094.01 1089.56 2092.19 1089.48C2094.02 1102.55 2095.37 1112.56 2096.24 1119.51C2096.46 1121.3 2095.75 1122.9 2094.12 1124.31C2092.58 1125.71 2090.72 1126.55 2088.53 1126.82C2085.95 1127.14 2083.8 1126.4 2082.06 1124.61C2080.57 1122.37 2079.54 1118.92 2078.96 1114.26C2078.76 1112.67 2078.57 1110.38 2078.4 1107.38L2077.73 1100.81C2076.98 1094.76 2076.41 1088.23 2076.04 1081.22C2075.45 1073.23 2074.92 1067.4 2074.46 1063.73C2074.08 1060.65 2073.27 1056.57 2072.03 1051.49C2071.81 1050.51 2071.46 1048.94 2070.99 1046.78C2070.5 1044.52 2070.15 1042.5 2069.93 1040.71C2069.77 1039.42 2070.16 1038.16 2071.12 1036.94C2072.08 1035.71 2073.08 1034.88 2074.13 1034.44C2082.11 1032.14 2090.07 1030.49 2098.01 1029.5C2110.91 1027.89 2121.78 1029 2130.62 1032.84C2139.46 1036.67 2144.51 1043.6 2145.76 1053.62C2146.13 1056.6 2145.73 1059.82 2144.55 1063.3C2143.46 1066.66 2141.88 1069.37 2139.82 1071.44C2136.37 1075.3 2132.48 1078 2128.14 1079.55C2128.36 1079.73 2129.58 1080.58 2131.78 1082.12C2133.99 1083.66 2135.56 1085.38 2136.51 1087.28L2139.19 1092.99C2141.48 1097.64 2143.24 1100.85 2144.47 1102.61C2145.68 1104.27 2147.08 1105 2148.67 1104.81C2150.16 1104.62 2151.04 1104.41 2151.31 1104.17C2151.69 1103.93 2152.52 1103.72 2153.81 1103.56ZM2090.46 1076.85C2093.46 1076.68 2095.56 1076.51 2096.75 1076.37C2098.54 1076.14 2101 1075.73 2104.16 1075.14L2111.13 1074.12C2114.21 1073.73 2117.3 1072.64 2120.4 1070.84C2123.5 1069.05 2125.99 1066.77 2127.86 1064.02C2129.72 1061.17 2130.45 1058.15 2130.06 1054.98C2129.35 1049.32 2126.56 1045.49 2121.67 1043.48C2116.78 1041.47 2109.53 1041.06 2099.9 1042.26C2096.23 1042.72 2091.98 1043.76 2087.14 1045.37C2087.78 1048.91 2088.2 1051.48 2088.4 1053.07C2088.64 1054.96 2088.89 1057.8 2089.16 1061.59L2089.55 1065.93C2089.77 1070.13 2090.08 1073.77 2090.46 1076.85ZM2217.95 1109.92C2211.41 1110.73 2205.3 1110.69 2199.65 1109.78C2193.98 1108.78 2189.21 1106.9 2185.34 1104.16C2178.28 1099.3 2173.05 1093.7 2169.64 1087.37C2166.32 1080.94 2164.01 1072.51 2162.71 1062.09C2162.43 1059.91 2162.48 1057.83 2162.84 1055.87C2163.29 1053.8 2163.91 1051.51 2164.7 1048.99C2164.91 1048.26 2165.22 1047.11 2165.63 1045.55C2166.13 1043.87 2166.4 1042.38 2166.43 1041.07C2167.88 1037.36 2170.65 1033.64 2174.71 1029.9C2178.88 1026.16 2183.48 1023.02 2188.5 1020.47C2193.51 1017.83 2198 1016.26 2201.97 1015.77C2221.13 1013.38 2235.64 1018.22 2245.51 1030.29C2251.12 1037.35 2254.42 1044.75 2255.38 1052.49C2256.63 1062.51 2255.89 1071.52 2253.16 1079.52C2250.53 1087.51 2246.3 1093.98 2240.47 1098.94C2236.8 1101.82 2232.97 1104.26 2228.99 1106.27C2225.01 1108.28 2221.33 1109.49 2217.95 1109.92ZM2179.56 1071.17C2180.14 1076.64 2181.85 1081.01 2184.68 1084.29C2187.59 1087.45 2191.94 1090.79 2197.72 1094.3C2201.87 1095.29 2204.77 1095.94 2206.42 1096.24C2208.07 1096.54 2209.84 1096.57 2211.73 1096.33C2218.17 1095.53 2223.71 1093.48 2228.34 1090.18C2232.97 1086.88 2236.33 1082.73 2238.43 1077.73C2240.62 1072.72 2241.36 1067.34 2240.64 1061.58C2239.7 1054.04 2238.12 1048.19 2235.89 1044.04C2233.65 1039.88 2230.14 1036.34 2225.34 1033.41C2222.82 1031.81 2219.72 1030.79 2216.04 1030.34C2212.45 1029.88 2208.68 1029.9 2204.71 1030.39C2195.18 1031.58 2188.21 1035.88 2183.79 1043.28C2179.46 1050.58 2178.05 1059.87 2179.56 1071.17ZM2325.2 1056.32C2335.66 1069.93 2345.2 1080.58 2353.82 1088.27C2354.72 1088.97 2355.22 1089.81 2355.35 1090.8C2355.51 1092.09 2354.85 1093.29 2353.38 1094.38C2351.91 1095.57 2350.14 1096.29 2348.05 1096.55C2344.98 1096.94 2341.49 1096.06 2337.6 1093.93C2334.8 1092.46 2332.09 1090.13 2329.47 1086.93C2326.84 1083.63 2323.79 1079.37 2320.32 1074.16L2317.16 1069.42C2313.99 1065.08 2312.12 1062.54 2311.52 1061.81C2309.45 1062.97 2307 1063.93 2304.17 1064.69C2301.34 1065.45 2297.86 1066.23 2293.73 1067.05C2295.52 1079.73 2296.72 1088.6 2297.35 1093.66C2297.59 1095.54 2297.09 1097.17 2295.85 1098.53C2294.59 1099.8 2292.93 1100.56 2290.84 1100.82C2288.26 1101.14 2286.15 1100.35 2284.5 1098.44C2282.76 1095.83 2281.53 1091.6 2280.8 1085.75L2279.59 1074.86C2278.75 1068.12 2278.1 1061.7 2277.64 1055.61C2276.85 1047.64 2276.22 1041.78 2275.75 1038.01L2274.95 1030.4C2274.66 1028.11 2274.22 1025.8 2273.63 1023.46C2271.98 1023.16 2270.5 1022.59 2269.18 1021.74C2267.86 1020.8 2267.11 1019.68 2266.95 1018.39C2266.64 1015.91 2267.3 1013.92 2268.92 1012.4C2270.64 1010.78 2272.86 1009.59 2275.59 1008.85C2283.46 1006.56 2291.22 1004.93 2298.86 1003.98C2311.86 1002.36 2322.93 1003.45 2332.07 1007.24C2341.21 1011.04 2346.4 1017.9 2347.64 1027.82C2348.02 1030.9 2347.7 1033.96 2346.67 1037.02C2345.73 1039.95 2344.23 1042.51 2342.18 1044.68C2336.81 1050.09 2331.15 1053.97 2325.2 1056.32ZM2331.81 1029.35C2331.21 1024.58 2328.2 1021.03 2322.77 1018.68C2317.42 1016.23 2310.08 1015.58 2300.76 1016.74C2296.69 1017.25 2292.58 1018.27 2288.44 1019.79C2289.08 1023.34 2289.5 1025.86 2289.68 1027.35C2290.06 1030.32 2290.39 1034.62 2290.69 1040.22C2291.18 1045.8 2291.64 1050.28 2292.06 1053.66C2298.71 1052.83 2304.95 1051.14 2310.78 1048.6C2314.98 1046.76 2318.5 1045.07 2321.33 1043.5C2324.16 1041.94 2326.68 1039.96 2328.9 1037.57C2331.21 1035.06 2332.18 1032.32 2331.81 1029.35ZM2040.43 1222.62C2041.03 1227.48 2040.85 1233.25 2039.87 1239.92C2038.97 1246.48 2037.47 1254.63 2035.36 1264.36L2033.22 1275.06C2034.94 1275.15 2036.7 1275.08 2038.48 1274.86C2041.56 1274.47 2046.14 1273.6 2052.21 1272.24C2058.29 1270.87 2062.67 1270.03 2065.35 1269.69L2063.16 1253.34C2061.55 1242.05 2060.41 1233.73 2059.74 1228.37C2058.86 1221.32 2060.75 1217.51 2065.42 1216.93C2069.09 1216.47 2071.54 1217.12 2072.76 1218.88C2074.09 1220.63 2074.99 1223.39 2075.46 1227.16C2075.94 1231.03 2076.4 1237.07 2076.82 1245.28C2076.91 1246.88 2077.09 1249.53 2077.35 1253.23C2077.61 1256.93 2077.91 1260.11 2078.24 1262.79L2078.99 1267.54L2081.95 1267.02C2084.3 1266.52 2086.13 1266.19 2087.42 1266.03C2089.8 1265.73 2092.18 1266.24 2094.56 1267.56C2096.93 1268.77 2098.24 1270.42 2098.5 1272.51C2098.81 1274.99 2098.66 1276.97 2098.04 1278.46C2097.52 1279.94 2096.76 1280.74 2095.77 1280.86C2094.08 1281.07 2091.92 1281.14 2089.29 1281.06C2088.7 1281.14 2087.8 1281.2 2086.59 1281.25C2085.38 1281.2 2084.22 1281.24 2083.13 1281.38L2080.62 1281.84L2083.28 1301.92C2083.54 1304 2083.04 1305.68 2081.79 1306.94C2080.54 1308.21 2079.02 1308.95 2077.23 1309.17C2075.05 1309.45 2073.03 1308.99 2071.16 1307.82C2069.3 1306.64 2068.24 1305.01 2067.98 1302.92C2067.15 1296.27 2066.6 1291.05 2066.33 1287.26C2066.32 1286.35 2066.23 1285.25 2066.07 1283.96C2063.08 1284.23 2057.97 1285.23 2050.72 1286.94C2043.87 1288.6 2038.67 1289.65 2035.09 1290.1C2030.53 1290.67 2026.58 1290.5 2023.24 1289.61C2020 1288.7 2018.21 1286.86 2017.87 1284.08C2017.53 1281.4 2017.67 1278.06 2018.28 1274.05C2018.89 1270.05 2019.87 1264.63 2021.24 1257.81C2021.91 1255.11 2022.39 1252.88 2022.67 1251.13C2023.83 1245.85 2024.63 1241.42 2025.09 1237.83C2025.54 1234.15 2026 1229.71 2026.46 1224.51C2026.65 1222.87 2027.35 1221.58 2028.54 1220.62C2029.73 1219.67 2031.17 1219.08 2032.86 1218.87C2034.64 1218.65 2036.29 1218.9 2037.79 1219.62C2039.37 1220.23 2040.25 1221.23 2040.43 1222.62ZM2168.15 1212.12C2172.06 1216.77 2175.41 1222.25 2178.21 1228.55C2181 1234.75 2182.82 1241.23 2183.66 1247.97C2184.66 1256.01 2184.23 1263.83 2182.35 1271.42C2180.58 1279 2177.24 1285.41 2172.36 1290.65C2167.57 1295.89 2161.3 1298.99 2153.56 1299.95C2146.32 1300.86 2139.44 1299.85 2132.93 1296.93C2126.41 1293.92 2121.3 1290.12 2117.6 1285.54C2114.86 1282.16 2112.61 1278.26 2110.85 1273.84C2109.08 1269.32 2107.9 1264.73 2107.32 1260.07C2106.3 1251.93 2107 1243.78 2109.41 1235.62C2111.91 1227.45 2115.9 1220.65 2121.38 1215.24C2126.6 1210.25 2132.93 1207.29 2140.37 1206.36C2148.61 1205.34 2157.87 1207.25 2168.15 1212.12ZM2129.54 1227.37C2128.83 1228.97 2128.11 1230.42 2127.36 1231.72C2125.59 1235.27 2124.35 1238.24 2123.64 1240.65C2122.92 1242.96 2122.45 1246.44 2122.22 1251.11C2122.09 1253.24 2122.19 1255.7 2122.54 1258.47C2123.42 1265.52 2125.57 1271.45 2128.99 1276.26C2132.5 1280.96 2136.85 1283.9 2142.03 1285.06C2144.52 1285.66 2147.26 1285.77 2150.24 1285.4C2157.68 1284.47 2162.88 1280.5 2165.83 1273.48C2168.87 1266.35 2169.78 1257.92 2168.57 1248.19C2167.44 1239.16 2164.83 1231.98 2160.74 1226.65C2156.64 1221.21 2151.06 1218.94 2144.02 1219.82C2141.14 1220.18 2138.71 1220.93 2136.74 1222.09C2134.87 1223.23 2132.47 1224.99 2129.54 1227.37ZM2221.54 1200.01C2222.15 1204.88 2221.96 1210.64 2220.98 1217.32C2220.09 1223.88 2218.58 1232.03 2216.47 1241.76L2214.33 1252.46C2216.06 1252.55 2217.81 1252.48 2219.6 1252.26C2222.67 1251.87 2227.25 1251 2233.33 1249.64C2239.41 1248.27 2243.78 1247.42 2246.46 1247.09L2244.27 1230.74C2242.66 1219.45 2241.52 1211.13 2240.85 1205.77C2239.97 1198.72 2241.87 1194.91 2246.53 1194.33C2250.2 1193.87 2252.65 1194.52 2253.88 1196.28C2255.21 1198.03 2256.1 1200.79 2256.58 1204.56C2257.06 1208.43 2257.51 1214.47 2257.93 1222.68C2258.03 1224.28 2258.21 1226.93 2258.47 1230.63C2258.73 1234.32 2259.02 1237.51 2259.36 1240.19L2260.1 1244.94L2263.06 1244.41C2265.42 1243.92 2267.24 1243.59 2268.53 1243.43C2270.91 1243.13 2273.29 1243.64 2275.67 1244.96C2278.04 1246.17 2279.36 1247.82 2279.62 1249.91C2279.93 1252.39 2279.77 1254.37 2279.15 1255.86C2278.63 1257.34 2277.87 1258.14 2276.88 1258.26C2275.19 1258.47 2273.04 1258.54 2270.41 1258.46C2269.81 1258.54 2268.91 1258.6 2267.71 1258.65C2266.49 1258.6 2265.34 1258.64 2264.25 1258.78L2261.74 1259.24L2264.39 1279.32C2264.65 1281.4 2264.16 1283.08 2262.9 1284.34C2261.65 1285.61 2260.13 1286.35 2258.34 1286.57C2256.16 1286.85 2254.14 1286.39 2252.28 1285.21C2250.42 1284.04 2249.36 1282.4 2249.1 1280.32C2248.27 1273.67 2247.72 1268.45 2247.45 1264.65C2247.43 1263.75 2247.35 1262.65 2247.19 1261.36C2244.2 1261.63 2239.08 1262.62 2231.84 1264.33C2224.99 1266 2219.78 1267.05 2216.21 1267.49C2211.64 1268.06 2207.69 1267.9 2204.36 1267.01C2201.12 1266.1 2199.33 1264.26 2198.98 1261.48C2198.65 1258.8 2198.78 1255.46 2199.39 1251.45C2200 1247.45 2200.99 1242.03 2202.35 1235.21C2203.02 1232.51 2203.5 1230.28 2203.79 1228.53C2204.94 1223.25 2205.75 1218.81 2206.21 1215.23C2206.66 1211.55 2207.11 1207.11 2207.57 1201.91C2207.77 1200.27 2208.46 1198.98 2209.65 1198.02C2210.85 1197.07 2212.28 1196.48 2213.97 1196.27C2215.76 1196.05 2217.4 1196.3 2218.9 1197.02C2220.49 1197.63 2221.37 1198.63 2221.54 1200.01Z" fill="black"/>
<path d="M42 41H2643.15V39H42V41ZM2644.15 42V1953.48H2646.15V42H2644.15ZM2643.15 1954.48H42V1956.48H2643.15V1954.48ZM41 1953.48V42.0001H39V1953.48H41ZM42 1954.48C41.4477 1954.48 41 1954.03 41 1953.48H39C39 1955.14 40.3431 1956.48 42 1956.48V1954.48ZM2644.15 1953.48C2644.15 1954.03 2643.71 1954.48 2643.15 1954.48V1956.48C2644.81 1956.48 2646.15 1955.14 2646.15 1953.48H2644.15ZM2643.15 41C2643.71 41 2644.15 41.4477 2644.15 42H2646.15C2646.15 40.3431 2644.81 39 2643.15 39V41ZM42 39C40.3431 39 39 40.3432 39 42.0001H41C41 41.4477 41.4478 41 42 41V39Z" fill="black" fill-opacity="0.1"/>
<defs>
<radialGradient id="paint0_diamond_0_1" cx="0" cy="0" r="1" gradientUnits="userSpaceOnUse" gradientTransform="translate(752.558 786.517) rotate(90) scale(387.19 802.857)">
<stop stop-color="#FFE600" stop-opacity="0.2"/>
<stop offset="0.411458" stop-color="#FF8A00"/>
</radialGradient>
</defs>
</svg>
